<?xml version="1.0" encoding="UTF-8"?>
<svg id="Calque_1" data-name="Calque 1" xmlns="http://www.w3.org/2000/svg" xmlns:xlink="http://www.w3.org/1999/xlink" viewBox="0 0 173 62">
  <defs>
    <style>
      .cls-1 {
        fill: #e52629;
      }

      .cls-1, .cls-2, .cls-3 {
        stroke-width: 0px;
      }

      .cls-2 {
        fill: none;
      }

      .cls-4 {
        clip-path: url(#clippath);
      }

      .cls-3 {
        fill: #1d1d1b;
      }
    </style>
    <clipPath id="clippath">
      <rect class="cls-2" y=".08" width="173" height="61.83"/>
    </clipPath>
  </defs>
  <g class="cls-4">
    <polygon class="cls-3" points="86.64 9.27 86.64 41.2 77.8 41.2 77.8 9.27 65.59 9.27 65.59 1.14 98.82 1.14 98.82 9.27 86.64 9.27"/>
    <path class="cls-3" d="M130.64,34.63c-.74,1.56-1.73,2.83-3,3.9-1.27,1.07-2.84,1.85-4.61,2.42-1.81.53-3.78.82-5.96.82-3.04,0-6.04-.53-9.01-1.56-2.96-1.07-5.63-2.67-8.02-4.84l5.22-6.24c1.85,1.48,3.7,2.67,5.63,3.53,1.93.86,4.03,1.31,6.33,1.31,1.85,0,3.25-.33,4.28-.98,1.03-.66,1.52-1.6,1.52-2.79v-.12c0-.57-.12-1.07-.33-1.52-.21-.45-.62-.86-1.19-1.23-.58-.37-1.4-.78-2.47-1.15-1.07-.37-2.43-.78-4.11-1.19-2.01-.49-3.87-1.07-5.51-1.64-1.64-.62-3.04-1.35-4.19-2.26-1.15-.9-2.06-2.01-2.67-3.37-.62-1.35-.95-3-.95-4.97v-.12c0-1.85.33-3.49,1.03-4.97s1.64-2.75,2.88-3.82c1.23-1.07,2.71-1.89,4.4-2.46,1.73-.57,3.62-.86,5.67-.86,2.96,0,5.63.45,8.1,1.31,2.47.86,4.73,2.13,6.79,3.78l-4.56,6.65c-1.81-1.23-3.54-2.18-5.26-2.87s-3.45-1.07-5.14-1.07-3,.33-3.87.98c-.86.66-1.27,1.48-1.27,2.5v.12c0,.66.12,1.19.37,1.68s.7.9,1.36,1.27c.66.37,1.52.74,2.67,1.07,1.11.33,2.55.74,4.28,1.19,2.01.53,3.82,1.15,5.43,1.81,1.6.66,2.92,1.48,4.03,2.42,1.11.94,1.93,2.01,2.47,3.28.58,1.27.82,2.75.82,4.51v.12c-.04,2.05-.41,3.82-1.15,5.33Z"/>
    <path class="cls-3" d="M165.64,40.01c-2.84,1.23-6.09,1.85-9.79,1.85-3.13,0-6-.53-8.55-1.56-2.59-1.03-4.81-2.46-6.66-4.27-1.85-1.85-3.29-4.02-4.32-6.53-1.03-2.5-1.56-5.25-1.56-8.25v-.12c0-2.87.53-5.54,1.56-8.04,1.07-2.5,2.51-4.68,4.4-6.57,1.85-1.89,4.07-3.37,6.66-4.47,2.55-1.07,5.39-1.64,8.43-1.64,1.81,0,3.41.12,4.89.37,1.48.25,2.84.62,4.11,1.07s2.43,1.03,3.54,1.72c1.11.7,2.18,1.48,3.21,2.34l-5.55,6.69c-.78-.66-1.52-1.23-2.3-1.72-.78-.49-1.56-.9-2.39-1.27-.82-.33-1.73-.62-2.67-.82-.95-.21-2.01-.29-3.17-.29-1.6,0-3.08.33-4.48.98-1.4.66-2.63,1.56-3.66,2.71-1.07,1.11-1.89,2.46-2.47,3.94-.58,1.52-.9,3.12-.9,4.84v.12c0,1.85.29,3.53.9,5.09.58,1.56,1.44,2.91,2.51,4.02,1.07,1.15,2.39,2.05,3.82,2.67,1.48.62,3.08.94,4.89.94,3.29,0,6.04-.82,8.31-2.42v-5.75h-8.88v-7.51h17.44v17.4c-2.01,1.76-4.48,3.24-7.32,4.47Z"/>
    <polygon class="cls-3" points="4.11 59.75 3.08 59.75 3.08 51.54 0 51.54 0 50.6 7.2 50.6 7.2 51.54 4.11 51.54 4.11 59.75"/>
    <path class="cls-3" d="M12.25,56.01c-.04-.29-.08-.62-.21-.86-.08-.29-.25-.53-.41-.74-.16-.21-.41-.37-.66-.49-.25-.12-.53-.21-.9-.21-.29,0-.58.04-.82.16-.25.12-.49.29-.66.49-.21.21-.33.45-.45.74-.12.29-.21.57-.25.9h4.36ZM8.18,57.74c.12.29.33.53.53.74s.45.33.74.45c.29.08.53.16.86.16.45,0,.86-.08,1.19-.25.33-.16.66-.41.9-.7l.62.57c-.33.37-.74.7-1.15.9-.45.25-.99.33-1.6.33-.45,0-.9-.08-1.32-.25-.41-.16-.78-.41-1.07-.74-.29-.33-.53-.7-.74-1.11-.16-.45-.29-.9-.29-1.44,0-.49.08-.94.25-1.4.16-.45.37-.82.66-1.11.29-.33.62-.57,1.03-.74.41-.16.82-.29,1.32-.29s.95.08,1.32.29c.41.21.74.45.99.78.29.33.49.7.62,1.15.12.45.21.9.21,1.4v.33h-5.35c.08.29.16.62.29.9Z"/>
    <path class="cls-3" d="M19.7,59.54c-.45.25-.99.37-1.6.37-.49,0-.95-.08-1.4-.29-.41-.21-.78-.45-1.11-.74-.33-.33-.53-.7-.74-1.11-.16-.41-.25-.86-.25-1.35s.08-.94.25-1.35c.16-.45.41-.82.74-1.15.33-.33.66-.57,1.11-.78.45-.21.86-.29,1.4-.29.33,0,.62.04.86.08s.49.16.74.25c.21.12.41.25.62.37.16.16.37.29.49.45l-.66.7c-.29-.29-.58-.53-.86-.74-.33-.21-.7-.29-1.19-.29-.33,0-.66.08-.95.21-.29.12-.53.33-.78.57-.21.25-.37.53-.49.82-.12.33-.16.66-.16,1.03s.08.7.21,1.03c.12.33.29.62.53.82.21.25.49.41.78.57.29.12.62.21.99.21.45,0,.82-.08,1.15-.29.33-.21.66-.45.9-.74l.66.62c-.41.45-.78.78-1.23,1.03Z"/>
    <path class="cls-3" d="M23.56,59.75h-1.03v-9.52h1.03v3.94c.25-.37.53-.7.9-.94.37-.25.82-.37,1.44-.37.41,0,.78.08,1.11.21.33.12.58.33.82.57.21.25.41.53.49.86.12.33.16.7.16,1.11v4.19h-1.03v-3.94c0-.62-.16-1.11-.49-1.48-.33-.37-.78-.53-1.4-.53-.29,0-.58.04-.82.16-.25.08-.45.25-.66.45-.16.21-.33.41-.41.66-.08.25-.16.53-.16.86v3.78h.04Z"/>
    <path class="cls-3" d="M31.62,59.75h-1.03v-6.77h1.03v1.19c.25-.37.53-.7.9-.94.37-.25.82-.37,1.44-.37.41,0,.78.08,1.11.21.33.12.58.33.82.57.21.25.41.53.49.86.12.33.16.7.16,1.11v4.19h-1.03v-3.94c0-.62-.16-1.11-.49-1.48-.33-.37-.78-.53-1.4-.53-.29,0-.58.04-.82.16-.25.08-.45.25-.66.45-.16.21-.33.41-.41.66-.08.25-.16.53-.16.86v3.78h.04Z"/>
    <path class="cls-3" d="M44.08,55.36c-.12-.33-.29-.62-.53-.82-.25-.25-.49-.41-.78-.57-.29-.12-.66-.21-.99-.21-.37,0-.7.08-1.03.21-.29.12-.58.33-.78.57-.21.25-.37.53-.49.82-.12.33-.16.66-.16,1.03s.08.7.21,1.03c.12.33.29.62.53.82.21.25.49.41.78.57.29.12.62.21.99.21s.7-.08,1.03-.21c.33-.12.58-.33.78-.57.21-.25.37-.49.49-.82.12-.33.16-.66.16-1.03,0-.33-.08-.7-.21-1.03ZM45.03,57.74c-.16.45-.41.82-.74,1.15-.33.33-.7.57-1.11.78-.45.21-.9.29-1.4.29s-.99-.08-1.4-.29c-.41-.21-.78-.45-1.11-.74-.33-.33-.58-.7-.74-1.11-.16-.41-.25-.86-.25-1.35s.08-.94.25-1.35c.16-.45.41-.82.74-1.15.33-.33.7-.57,1.11-.78s.9-.29,1.44-.29c.49,0,.99.08,1.4.29.45.21.82.45,1.11.74.33.33.58.7.74,1.11.16.41.25.86.25,1.35s-.08.94-.29,1.35Z"/>
    <rect class="cls-3" x="47.21" y="50.23" width="1.03" height="9.52"/>
    <path class="cls-3" d="M56.01,55.36c-.12-.33-.29-.62-.53-.82-.25-.25-.49-.41-.78-.57-.29-.12-.66-.21-.99-.21-.37,0-.7.08-1.03.21-.29.12-.58.33-.78.57-.21.25-.37.53-.49.82-.12.33-.16.66-.16,1.03s.08.7.21,1.03c.12.33.29.62.53.82.21.25.49.41.78.57.29.12.62.21.99.21s.7-.08,1.03-.21.58-.33.78-.57c.21-.25.37-.49.49-.82.12-.33.16-.66.16-1.03-.04-.33-.08-.7-.21-1.03ZM56.95,57.74c-.16.45-.41.82-.74,1.15-.33.33-.7.57-1.11.78-.45.21-.9.29-1.4.29s-.99-.08-1.4-.29c-.41-.21-.78-.45-1.11-.74-.33-.33-.58-.7-.74-1.11s-.25-.86-.25-1.35.08-.94.25-1.35c.16-.45.41-.82.74-1.15.33-.33.7-.57,1.11-.78s.9-.29,1.44-.29c.49,0,.99.08,1.4.29s.82.45,1.11.74c.33.33.58.7.74,1.11.16.41.25.86.25,1.35-.04.49-.12.94-.29,1.35Z"/>
    <path class="cls-3" d="M64.31,55.11c-.12-.29-.33-.53-.58-.74-.25-.21-.49-.37-.78-.45-.29-.12-.62-.16-.95-.16s-.62.04-.9.16c-.29.12-.53.25-.74.45-.21.21-.37.45-.49.74-.12.29-.16.62-.16.94s.08.66.21.94c.12.29.29.53.49.74.21.21.45.37.74.45.29.12.58.16.9.16s.62-.04.95-.16c.29-.12.58-.25.78-.45.25-.21.41-.45.58-.74.12-.29.21-.62.21-.94-.04-.37-.12-.66-.25-.94ZM65.26,60.03c-.16.41-.41.74-.7,1.03-.29.29-.66.49-1.07.62s-.9.21-1.44.21c-.58,0-1.11-.08-1.6-.25-.53-.16-.99-.41-1.44-.7l.45-.78c.41.29.82.49,1.23.66.41.16.9.21,1.36.21.74,0,1.36-.21,1.81-.62.45-.41.66-.98.66-1.81v-.78c-.29.41-.66.74-1.07,1.03-.41.29-.95.41-1.56.41-.41,0-.82-.08-1.19-.21-.37-.12-.7-.37-1.03-.62-.29-.29-.53-.62-.7-.98-.16-.41-.29-.82-.29-1.31s.08-.94.29-1.35c.16-.41.41-.74.7-1.03.29-.29.62-.49,1.03-.62.37-.16.78-.21,1.19-.21.33,0,.62.04.86.12.25.08.49.16.74.29.21.12.41.25.58.45.16.16.33.33.45.53v-1.23h1.03v5.58c-.08.45-.16.94-.29,1.35Z"/>
    <path class="cls-3" d="M71.02,59.99c-.29.7-.62,1.19-.95,1.48-.37.29-.78.45-1.27.45-.29,0-.53-.04-.74-.08-.25-.04-.45-.12-.7-.25l.33-.78c.16.08.33.16.49.21.16.04.37.04.58.04.29,0,.58-.08.78-.29.21-.16.41-.53.62-.98l-3.08-6.73h1.11l2.47,5.62,2.18-5.62h1.07l-2.88,6.94Z"/>
    <path class="cls-3" d="M80.48,53.47c.08.16.21.33.37.49.16.16.45.29.74.41.33.12.74.25,1.23.33,1.03.25,1.77.53,2.26.94.49.41.74.94.74,1.68,0,.41-.08.74-.25,1.07-.16.33-.37.62-.66.82-.29.25-.62.41-.99.53-.37.12-.82.16-1.27.16-.74,0-1.4-.12-2.01-.37-.62-.25-1.19-.62-1.73-1.11l.66-.74c.49.45.95.78,1.44.98.49.21,1.07.33,1.69.33s1.11-.16,1.48-.45c.37-.29.58-.66.58-1.15,0-.21-.04-.41-.12-.57-.08-.16-.21-.33-.37-.45-.16-.12-.41-.25-.74-.37-.33-.12-.7-.21-1.19-.33-.53-.12-.99-.25-1.36-.41s-.7-.33-.95-.53c-.25-.21-.45-.45-.58-.74-.12-.29-.16-.62-.16-.98s.08-.7.21-1.03c.16-.29.37-.57.62-.78.29-.21.58-.41.95-.53.37-.12.78-.21,1.19-.21.66,0,1.27.08,1.77.29.49.16.99.45,1.48.82l-.62.78c-.41-.33-.86-.62-1.27-.74-.45-.16-.86-.25-1.36-.25-.29,0-.58.04-.82.12-.25.08-.45.16-.62.33-.16.12-.29.29-.41.45-.08.16-.12.37-.12.57.12.25.12.45.21.62Z"/>
    <path class="cls-3" d="M89.07,57.86c0,.41.12.7.33.86.21.16.49.25.82.25.16,0,.33,0,.49-.04.16-.04.33-.08.49-.16v.86c-.16.08-.37.16-.58.21-.21.04-.41.08-.66.08-.29,0-.53-.04-.74-.12-.25-.08-.45-.16-.62-.33-.16-.16-.29-.37-.41-.57-.08-.25-.16-.53-.16-.86v-4.14h-.95v-.9h.95v-2.05h1.03v2.05h2.14v.9h-2.14v3.98Z"/>
    <path class="cls-3" d="M94.05,56.71c-.33.25-.49.62-.49,1.03,0,.21.04.41.12.57.08.16.21.29.37.41.16.12.33.21.53.29.21.04.41.08.66.08.33,0,.62-.04.86-.12.29-.08.49-.21.7-.37.21-.16.37-.37.49-.57.12-.21.16-.45.16-.74v-.66c-.25-.08-.53-.12-.86-.21-.33-.04-.7-.08-1.11-.08-.62,0-1.11.12-1.44.37ZM94.37,53.96c-.33.08-.66.21-.95.37l-.29-.82c.37-.16.74-.33,1.15-.41.37-.08.82-.16,1.32-.16.95,0,1.64.25,2.14.7.49.45.74,1.15.74,2.05v4.14h-1.03v-1.03c-.25.29-.53.57-.95.82-.41.25-.9.37-1.48.37-.33,0-.62-.04-.9-.12-.29-.08-.58-.21-.82-.41-.25-.16-.45-.41-.58-.66-.16-.25-.21-.57-.21-.94s.08-.66.21-.94c.12-.29.33-.49.58-.7.25-.16.58-.33.9-.41.37-.08.74-.16,1.19-.16s.82.04,1.15.08.62.12.95.21v-.25c0-.62-.16-1.07-.53-1.4s-.86-.45-1.48-.45c-.41-.04-.78,0-1.11.12Z"/>
    <path class="cls-3" d="M104.12,53.02v.86h-2.14v5.87h-1.03v-5.87h-.95v-.86h.95v-.57c0-.74.16-1.31.53-1.68.37-.37.86-.57,1.52-.57.25,0,.45,0,.62.04.16.04.33.08.49.12v.86c-.16-.04-.37-.08-.49-.12-.16-.04-.33-.04-.49-.04-.78,0-1.19.49-1.19,1.44v.53h2.18Z"/>
    <path class="cls-3" d="M108.93,53.02v.86h-2.14v5.87h-1.03v-5.87h-.9v-.86h.95v-.57c0-.74.16-1.31.53-1.68.37-.37.86-.57,1.52-.57.25,0,.45,0,.62.04.16.04.33.08.49.12v.86c-.16-.04-.37-.08-.49-.12-.16-.04-.33-.04-.49-.04-.78,0-1.19.49-1.19,1.44v.53h2.14Z"/>
    <path class="cls-3" d="M110.29,59.75v-6.77h1.03v6.77h-1.03ZM110.25,51.54v-1.11h1.15v1.11h-1.15Z"/>
    <path class="cls-3" d="M114.65,59.75h-1.03v-6.77h1.03v1.19c.25-.37.53-.7.9-.94s.82-.37,1.44-.37c.41,0,.78.08,1.11.21.33.12.58.33.82.57.21.25.41.53.49.86.12.33.16.7.16,1.11v4.19h-1.03v-3.94c0-.62-.16-1.11-.49-1.48s-.78-.53-1.4-.53c-.29,0-.58.04-.82.16-.25.08-.45.25-.66.45-.16.21-.33.41-.41.66s-.16.53-.16.86v3.78h.04Z"/>
    <path class="cls-3" d="M126.98,55.11c-.12-.29-.33-.53-.58-.74-.25-.21-.49-.37-.78-.45-.29-.12-.62-.16-.95-.16s-.62.04-.9.16c-.29.12-.53.25-.74.45-.21.21-.37.45-.49.74-.12.29-.16.62-.16.94s.08.66.21.94c.12.29.29.53.49.74.21.21.45.37.74.45.29.12.58.16.9.16s.62-.04.95-.16c.29-.12.58-.25.78-.45.25-.21.41-.45.58-.74.12-.29.21-.62.21-.94-.04-.37-.12-.66-.25-.94ZM127.93,60.03c-.16.41-.41.74-.7,1.03-.29.29-.66.49-1.07.62-.41.12-.9.21-1.44.21-.58,0-1.11-.08-1.6-.25-.53-.16-.99-.41-1.44-.7l.45-.78c.41.29.82.49,1.23.66.41.16.9.21,1.36.21.74,0,1.36-.21,1.81-.62.45-.41.66-.98.66-1.81v-.78c-.29.41-.66.74-1.07,1.03-.41.29-.95.41-1.56.41-.41,0-.82-.08-1.19-.21-.37-.16-.7-.37-1.03-.62-.29-.29-.53-.62-.7-.98-.16-.41-.29-.82-.29-1.31s.08-.94.29-1.35c.16-.41.41-.74.7-1.03.29-.29.62-.49,1.03-.62.37-.16.78-.21,1.19-.21.33,0,.62.04.86.12.25.08.49.16.74.29.21.12.41.25.58.45.16.16.33.33.45.53v-1.23h1.03v5.58c-.04.45-.12.94-.29,1.35Z"/>
    <path class="cls-3" d="M140.88,59.5c-.62.29-1.32.41-2.1.41-.74,0-1.36-.12-1.93-.37-.58-.25-1.07-.57-1.48-1.03-.41-.41-.7-.94-.95-1.52-.21-.57-.33-1.19-.33-1.85,0-.62.12-1.23.33-1.81.21-.57.53-1.07.95-1.52.41-.45.86-.78,1.44-1.03s1.19-.37,1.89-.37c.37,0,.74.04,1.07.08.33.04.62.12.9.25s.53.25.78.37c.25.16.49.33.7.53l-.66.78c-.16-.16-.37-.29-.53-.41-.21-.12-.41-.25-.62-.33-.21-.08-.45-.16-.74-.21-.25-.04-.58-.08-.86-.08-.49,0-.99.08-1.4.29-.41.21-.78.45-1.11.82-.29.33-.53.74-.74,1.19-.16.45-.25.94-.25,1.48s.08,1.07.25,1.52c.16.45.41.86.74,1.23.33.33.7.62,1.15.78.45.21.95.29,1.52.29.53,0,1.03-.08,1.48-.29.45-.16.86-.41,1.15-.66v-2.3h-2.8v-.9h3.78v3.65c-.49.41-1.03.74-1.64.98Z"/>
    <path class="cls-3" d="M145.61,59.75h-1.03v-6.77h1.03v1.76c.12-.29.29-.53.45-.78.16-.25.41-.45.62-.62.25-.16.49-.29.78-.37.29-.08.58-.12.9-.12v1.07h-.08c-.37,0-.7.08-1.03.21-.33.12-.62.33-.86.57-.25.25-.45.57-.58.98-.12.37-.21.82-.21,1.35v2.71Z"/>
    <path class="cls-3" d="M155.03,55.36c-.12-.33-.29-.62-.53-.82-.25-.25-.49-.41-.78-.57-.29-.12-.66-.21-.99-.21-.37,0-.7.08-1.03.21-.29.12-.58.33-.78.57s-.37.53-.49.82c-.12.33-.16.66-.16,1.03s.08.7.21,1.03c.12.33.29.62.53.82.21.25.49.41.78.57.29.12.62.21.99.21s.7-.08,1.03-.21c.33-.12.58-.33.78-.57.21-.25.37-.49.49-.82.12-.33.16-.66.16-1.03,0-.33-.08-.7-.21-1.03ZM156.02,57.74c-.16.45-.41.82-.74,1.15-.33.33-.7.57-1.11.78-.45.21-.9.29-1.4.29s-.99-.08-1.4-.29c-.41-.21-.78-.45-1.11-.74-.33-.33-.58-.7-.74-1.11-.16-.41-.25-.86-.25-1.35s.08-.94.25-1.35c.16-.45.41-.82.74-1.15.33-.33.7-.57,1.11-.78.45-.21.9-.29,1.44-.29.49,0,.99.08,1.4.29.45.21.82.45,1.11.74.33.33.58.7.74,1.11.16.41.25.86.25,1.35-.04.49-.12.94-.29,1.35Z"/>
    <path class="cls-3" d="M162.88,53.02h.99v6.77h-.99v-1.19c-.25.37-.53.7-.9.94s-.82.37-1.44.37c-.41,0-.78-.08-1.11-.21-.33-.12-.58-.33-.82-.57-.21-.25-.41-.53-.49-.86-.12-.33-.16-.7-.16-1.11v-4.19h1.03v3.94c0,.62.16,1.11.49,1.48s.78.53,1.4.53c.29,0,.58-.04.82-.16s.45-.25.66-.45c.16-.21.33-.41.41-.66.12-.25.16-.53.16-.86v-3.78h-.04Z"/>
    <path class="cls-3" d="M171.77,55.31c-.12-.33-.29-.62-.53-.82-.21-.25-.45-.41-.74-.53-.29-.12-.58-.16-.9-.16s-.62.08-.9.21c-.29.12-.53.29-.78.53-.25.21-.41.49-.53.82-.12.33-.21.66-.21,1.07s.08.74.21,1.07c.12.33.33.62.53.82.25.21.49.41.78.53.29.12.58.21.9.21s.62-.04.9-.16c.29-.12.53-.29.74-.49.21-.21.37-.49.49-.82.12-.33.21-.7.21-1.11.04-.45-.04-.82-.16-1.15ZM172.71,57.86c-.16.45-.41.82-.74,1.11-.29.29-.66.53-1.03.7-.37.16-.78.25-1.19.25-.33,0-.62-.04-.86-.12s-.49-.16-.7-.33c-.21-.12-.41-.29-.58-.45s-.33-.37-.45-.53v3.37h-1.03v-8.86h1.03v1.35c.12-.21.29-.41.45-.57.16-.16.37-.33.58-.49.21-.12.45-.25.7-.33s.53-.12.86-.12c.41,0,.78.08,1.19.25.37.16.74.37,1.03.7.29.29.53.66.74,1.11.16.45.29.94.29,1.48,0,.62-.08,1.11-.29,1.52Z"/>
    <polygon class="cls-3" points="41.95 42.23 20.84 21.17 41.95 .1 63.06 21.17 41.95 42.23"/>
    <polygon class="cls-1" points="41.99 .12 25.25 .12 46.34 21.17 25.25 42.22 41.99 42.22 63.08 21.17 41.99 .12"/>
    <polygon class="cls-1" points="15.83 36.96 0 21.18 15.83 5.39 31.64 21.18 15.83 36.96"/>
  </g>
</svg>